<svg width="13" height="12" viewBox="0 0 13 12" fill="none" xmlns="http://www.w3.org/2000/svg">
<g clip-path="url(#clip0)">
<path d="M0.0319824 12H12.969C12.806 9.357 10.895 7.163 8.29798 6.457C8.81173 6.14929 9.23709 5.71387 9.53271 5.19308C9.82833 4.67228 9.98414 4.08385 9.98498 3.485C9.98498 2.56072 9.61781 1.6743 8.96425 1.02073C8.31069 0.367169 7.42426 0 6.49998 0C5.5757 0 4.68928 0.367169 4.03572 1.02073C3.38215 1.6743 3.01498 2.56072 3.01498 3.485C3.01498 4.749 3.69498 5.846 4.70298 6.457C2.10598 7.163 0.193982 9.357 0.0319824 12Z" fill="#F0C52E"/>
</g>
<defs>
<clipPath id="clip0">
<rect width="13" height="12" fill="white"/>
</clipPath>
</defs>
</svg>
