<svg width="160" height="160" viewBox="0 0 160 160" fill="none" xmlns="http://www.w3.org/2000/svg">
<path d="M97.349 37.49C97.349 36.754 96.771 36 96.038 36H53.053C52.32 36 51.672 36.754 51.672 37.49V41.012H97.348V37.49H97.349ZM98.202 117.809H88.605V107.426H81.647V109.933H62.774C62.237 108.679 61.017 107.785 59.593 107.785H47.559C45.642 107.784 44 109.387 44 111.311V114.329C44 116.253 45.642 117.809 47.559 117.809H59.594C61.105 117.809 62.386 116.913 62.863 115.483H81.648V117.809H72.13C71.597 117.809 71.12 118.246 71.12 118.781V121.953C71.12 122.488 71.598 123.001 72.13 123.001H98.202C98.735 123.001 99.132 122.488 99.132 121.953V118.78C99.132 118.245 98.735 117.809 98.202 117.809ZM104.666 48.39C104.236 46.9289 103.343 45.6467 102.122 44.7361C100.902 43.8255 99.4181 43.3356 97.895 43.34H51.148C47.25 43.34 44 46.449 44 50.361V97.261C44 101.173 47.25 104.382 51.148 104.382H97.895C101.793 104.382 105.021 101.173 105.021 97.261V86.915C108.117 84.7706 110.644 81.9058 112.387 78.5673C114.129 75.2288 115.033 71.5167 115.022 67.751C115.021 59.672 110.89 52.57 104.666 48.39V48.39ZM56.238 98.151C52.979 98.151 50.337 95.501 50.337 92.23C50.337 88.96 52.979 86.308 56.238 86.308C59.497 86.308 62.14 88.96 62.14 92.23C62.14 95.501 59.497 98.151 56.238 98.151ZM62.199 65.546C62.1993 65.7325 62.1628 65.9172 62.0917 66.0896C62.0206 66.2619 61.9162 66.4186 61.7845 66.5507C61.6528 66.6827 61.4964 66.7875 61.3243 66.8591C61.1521 66.9307 60.9675 66.9677 60.781 66.968H51.841C51.6545 66.9677 51.4699 66.9307 51.2977 66.8591C51.1256 66.7875 50.9692 66.6827 50.8375 66.5507C50.7058 66.4186 50.6014 66.2619 50.5303 66.0896C50.4592 65.9172 50.4227 65.7325 50.423 65.546V51.386C50.4226 51.1994 50.459 51.0146 50.53 50.8421C50.6011 50.6696 50.7055 50.5128 50.8371 50.3807C50.9688 50.2485 51.1253 50.1436 51.2975 50.072C51.4698 50.0003 51.6544 49.9633 51.841 49.963H60.78C60.9666 49.9633 61.1512 50.0003 61.3235 50.072C61.4957 50.1436 61.6522 50.2485 61.7839 50.3807C61.9155 50.5128 62.0199 50.6696 62.091 50.8421C62.162 51.0146 62.1984 51.1994 62.198 51.386V65.546H62.199ZM91.762 87.858C80.686 87.858 71.705 78.848 71.705 67.735C71.705 56.622 80.685 47.611 91.762 47.611C102.839 47.611 111.82 56.621 111.82 67.735C111.82 78.849 102.839 87.858 91.762 87.858V87.858Z" fill="#363636"/>
<path d="M91.762 79.964C98.4932 79.964 103.95 74.4889 103.95 67.735C103.95 60.9811 98.4932 55.506 91.762 55.506C85.0307 55.506 79.574 60.9811 79.574 67.735C79.574 74.4889 85.0307 79.964 91.762 79.964Z" fill="#363636"/>
<path d="M75.562 69.171C76.3545 69.171 76.997 68.5286 76.997 67.736C76.997 66.9435 76.3545 66.301 75.562 66.301C74.7694 66.301 74.127 66.9435 74.127 67.736C74.127 68.5286 74.7694 69.171 75.562 69.171Z" fill="#363636"/>
<path d="M107.963 69.171C108.756 69.171 109.398 68.5286 109.398 67.736C109.398 66.9435 108.756 66.301 107.963 66.301C107.171 66.301 106.528 66.9435 106.528 67.736C106.528 68.5286 107.171 69.171 107.963 69.171Z" fill="#363636"/>
<path d="M83.1091 55.429C83.9016 55.429 84.5441 54.7865 84.5441 53.994C84.5441 53.2014 83.9016 52.559 83.1091 52.559C82.3165 52.559 81.6741 53.2014 81.6741 53.994C81.6741 54.7865 82.3165 55.429 83.1091 55.429Z" fill="#363636"/>
<path d="M100.415 82.912C101.205 82.912 101.845 82.2691 101.845 81.476C101.845 80.683 101.205 80.04 100.415 80.04C99.6253 80.04 98.9851 80.683 98.9851 81.476C98.9851 82.2691 99.6253 82.912 100.415 82.912Z" fill="#363636"/>
<path d="M99.697 55C100.489 55 101.132 54.3575 101.132 53.565C101.132 52.7725 100.489 52.13 99.697 52.13C98.9044 52.13 98.262 52.7725 98.262 53.565C98.262 54.3575 98.9044 55 99.697 55Z" fill="#363636"/>
<path d="M83.8281 83.3409C84.6206 83.3409 85.2631 82.6985 85.2631 81.9059C85.2631 81.1134 84.6206 80.4709 83.8281 80.4709C83.0355 80.4709 82.3931 81.1134 82.3931 81.9059C82.3931 82.6985 83.0355 83.3409 83.8281 83.3409Z" fill="#363636"/>
</svg>
