<svg width="160" height="160" viewBox="0 0 160 160" fill="none" xmlns="http://www.w3.org/2000/svg">
<path d="M124.967 52.214C125.719 53.655 126.176 55.294 126.176 57.032V78.134C126.176 82.75 123.084 86.661 118.93 88.034C117.605 92.021 115.152 95.888 110.879 98.466C102.203 103.697 79.755 103.303 79.681 103.303C79.603 103.303 57.168 103.698 48.492 98.466C44.276 95.921 41.784 92.119 40.45 88.187C36.032 86.978 32.694 82.936 32.694 78.134V57.033C32.694 55.345 33.121 53.751 33.833 52.34C30.17 53.249 26 55.058 26 58.574C26 64.817 26 84.261 26 88.557C26 98.808 37.839 112.99 79.657 112.99C121.477 112.99 133.314 98.808 133.314 88.557C133.314 84.261 133.314 64.817 133.314 58.574C133.313 54.89 128.738 53.08 124.967 52.214Z" fill="#363636"/>
<path d="M46.5611 86.599H112.084C117.648 86.599 122.158 82.086 122.158 76.522V58.075C122.158 52.512 117.648 48 112.084 48H46.5611C40.9971 48 36.4861 52.511 36.4861 58.075V76.522C36.4861 82.086 40.9971 86.599 46.5611 86.599ZM109.695 57.608C110.562 57.608 111.264 58.311 111.264 59.178C111.264 60.044 110.562 60.747 109.695 60.747C108.828 60.747 108.127 60.044 108.127 59.178C108.127 58.31 108.828 57.608 109.695 57.608ZM109.695 61.647C110.562 61.647 111.264 62.35 111.264 63.215C111.264 64.082 110.562 64.784 109.695 64.784C108.828 64.784 108.127 64.082 108.127 63.215C108.127 62.35 108.828 61.647 109.695 61.647ZM109.695 65.686C110.562 65.686 111.264 66.388 111.264 67.255C111.264 68.121 110.562 68.824 109.695 68.824C108.828 68.824 108.127 68.121 108.127 67.255C108.127 66.388 108.828 65.686 109.695 65.686ZM109.695 69.513C110.562 69.513 111.264 70.217 111.264 71.082C111.264 71.949 110.562 72.65 109.695 72.65C108.828 72.65 108.127 71.949 108.127 71.082C108.127 70.216 108.828 69.513 109.695 69.513ZM109.695 73.552C110.562 73.552 111.264 74.254 111.264 75.121C111.264 75.986 110.562 76.689 109.695 76.689C108.828 76.689 108.127 75.985 108.127 75.121C108.127 74.254 108.828 73.552 109.695 73.552ZM105.656 57.608C106.523 57.608 107.224 58.311 107.224 59.178C107.224 60.044 106.523 60.747 105.656 60.747C104.791 60.747 104.088 60.044 104.088 59.178C104.088 58.31 104.791 57.608 105.656 57.608ZM105.656 73.552C106.523 73.552 107.224 74.254 107.224 75.121C107.224 75.986 106.523 76.689 105.656 76.689C104.791 76.689 104.088 75.985 104.088 75.121C104.088 74.254 104.791 73.552 105.656 73.552ZM101.619 57.608C102.484 57.608 103.187 58.311 103.187 59.178C103.187 60.044 102.484 60.747 101.619 60.747C100.752 60.747 100.05 60.044 100.05 59.178C100.05 58.31 100.752 57.608 101.619 57.608ZM101.619 61.647C102.484 61.647 103.187 62.35 103.187 63.215C103.187 64.082 102.484 64.784 101.619 64.784C100.752 64.784 100.05 64.082 100.05 63.215C100.05 62.35 100.752 61.647 101.619 61.647ZM101.619 65.686C102.484 65.686 103.187 66.388 103.187 67.255C103.187 68.121 102.484 68.824 101.619 68.824C100.752 68.824 100.05 68.121 100.05 67.255C100.05 66.388 100.752 65.686 101.619 65.686ZM101.619 69.513C102.484 69.513 103.187 70.217 103.187 71.082C103.187 71.949 102.484 72.65 101.619 72.65C100.752 72.65 100.05 71.949 100.05 71.082C100.05 70.216 100.752 69.513 101.619 69.513ZM101.619 73.552C102.484 73.552 103.187 74.254 103.187 75.121C103.187 75.986 102.484 76.689 101.619 76.689C100.752 76.689 100.05 75.985 100.05 75.121C100.05 74.254 100.752 73.552 101.619 73.552ZM93.9651 57.608C94.8321 57.608 95.5331 58.311 95.5331 59.178C95.5331 60.044 94.8321 60.747 93.9651 60.747C93.0981 60.747 92.3971 60.044 92.3971 59.178C92.3961 58.31 93.1001 57.608 93.9651 57.608ZM93.9651 65.686C94.8321 65.686 95.5331 66.388 95.5331 67.255C95.5331 68.121 94.8321 68.824 93.9651 68.824C93.0981 68.824 92.3971 68.121 92.3971 67.255C92.3961 66.388 93.1001 65.686 93.9651 65.686ZM93.9651 69.567C94.8321 69.567 95.5331 70.268 95.5331 71.135C95.5331 72 94.8321 72.704 93.9651 72.704C93.0981 72.704 92.3971 72 92.3971 71.135C92.3961 70.268 93.1001 69.567 93.9651 69.567ZM93.9651 73.552C94.8321 73.552 95.5331 74.254 95.5331 75.121C95.5331 75.986 94.8321 76.689 93.9651 76.689C93.0981 76.689 92.3971 75.985 92.3971 75.121C92.3961 74.254 93.1001 73.552 93.9651 73.552ZM89.9261 57.608C90.7931 57.608 91.4961 58.311 91.4961 59.178C91.4961 60.044 90.7931 60.747 89.9261 60.747C89.0611 60.747 88.3571 60.044 88.3571 59.178C88.3561 58.31 89.0611 57.608 89.9261 57.608ZM89.9261 65.686C90.7931 65.686 91.4961 66.388 91.4961 67.255C91.4961 68.121 90.7931 68.824 89.9261 68.824C89.0611 68.824 88.3571 68.121 88.3571 67.255C88.3561 66.388 89.0611 65.686 89.9261 65.686ZM89.9261 73.552C90.7931 73.552 91.4961 74.254 91.4961 75.121C91.4961 75.986 90.7931 76.689 89.9261 76.689C89.0611 76.689 88.3571 75.985 88.3571 75.121C88.3561 74.254 89.0611 73.552 89.9261 73.552ZM85.8881 57.608C86.7531 57.608 87.4571 58.311 87.4571 59.178C87.4571 60.044 86.7531 60.747 85.8881 60.747C85.0211 60.747 84.3201 60.044 84.3201 59.178C84.3191 58.31 85.0211 57.608 85.8881 57.608ZM85.8881 61.647C86.7531 61.647 87.4571 62.35 87.4571 63.215C87.4571 64.082 86.7531 64.784 85.8881 64.784C85.0211 64.784 84.3201 64.082 84.3201 63.215C84.3191 62.35 85.0211 61.647 85.8881 61.647ZM85.8881 65.686C86.7531 65.686 87.4571 66.388 87.4571 67.255C87.4571 68.121 86.7531 68.824 85.8881 68.824C85.0211 68.824 84.3201 68.121 84.3201 67.255C84.3191 66.388 85.0211 65.686 85.8881 65.686ZM85.8881 73.552C86.7531 73.552 87.4571 74.254 87.4571 75.121C87.4571 75.986 86.7531 76.689 85.8881 76.689C85.0211 76.689 84.3201 75.985 84.3201 75.121C84.3191 74.254 85.0211 73.552 85.8881 73.552ZM77.5981 57.608C78.4651 57.608 79.1671 58.311 79.1671 59.178C79.1671 60.044 78.4651 60.747 77.5981 60.747C76.7311 60.747 76.0301 60.044 76.0301 59.178C76.0291 58.31 76.7311 57.608 77.5981 57.608ZM77.5981 61.647C78.4651 61.647 79.1671 62.35 79.1671 63.215C79.1671 64.082 78.4651 64.784 77.5981 64.784C76.7311 64.784 76.0301 64.082 76.0301 63.215C76.0291 62.35 76.7311 61.647 77.5981 61.647ZM77.5981 65.686C78.4651 65.686 79.1671 66.388 79.1671 67.255C79.1671 68.121 78.4651 68.824 77.5981 68.824C76.7311 68.824 76.0301 68.121 76.0301 67.255C76.0291 66.388 76.7311 65.686 77.5981 65.686ZM77.5981 69.567C78.4651 69.567 79.1671 70.268 79.1671 71.135C79.1671 72 78.4651 72.704 77.5981 72.704C76.7311 72.704 76.0301 72 76.0301 71.135C76.0291 70.268 76.7311 69.567 77.5981 69.567ZM77.5981 73.552C78.4651 73.552 79.1671 74.254 79.1671 75.121C79.1671 75.986 78.4651 76.689 77.5981 76.689C76.7311 76.689 76.0301 75.985 76.0301 75.121C76.0291 74.254 76.7311 73.552 77.5981 73.552ZM73.5591 61.647C74.4261 61.647 75.1271 62.35 75.1271 63.215C75.1271 64.082 74.4261 64.784 73.5591 64.784C72.6921 64.784 71.9901 64.082 71.9901 63.215C71.9901 62.35 72.6911 61.647 73.5591 61.647ZM65.0571 61.435C65.9221 61.435 66.6261 62.138 66.6261 63.003C66.6261 63.87 65.9221 64.572 65.0571 64.572C64.1901 64.572 63.4861 63.869 63.4861 63.003C63.4861 62.138 64.1891 61.435 65.0571 61.435ZM65.0571 65.473C65.9221 65.473 66.6261 66.176 66.6261 67.043C66.6261 67.909 65.9221 68.613 65.0571 68.613C64.1901 68.613 63.4861 67.909 63.4861 67.043C63.4861 66.176 64.1891 65.473 65.0571 65.473ZM61.0181 57.395C61.8831 57.395 62.5861 58.098 62.5861 58.965C62.5861 59.831 61.8821 60.533 61.0181 60.533C60.1511 60.533 59.4491 59.83 59.4491 58.965C59.4491 58.098 60.1501 57.395 61.0181 57.395ZM61.0181 61.435C61.8831 61.435 62.5861 62.138 62.5861 63.003C62.5861 63.87 61.8821 64.572 61.0181 64.572C60.1511 64.572 59.4491 63.869 59.4491 63.003C59.4491 62.138 60.1501 61.435 61.0181 61.435ZM61.0181 65.473C61.8831 65.473 62.5861 66.176 62.5861 67.043C62.5861 67.909 61.8821 68.613 61.0181 68.613C60.1511 68.613 59.4491 67.909 59.4491 67.043C59.4491 66.176 60.1501 65.473 61.0181 65.473ZM61.0181 69.513C61.8831 69.513 62.5861 70.217 62.5861 71.082C62.5861 71.949 61.8821 72.65 61.0181 72.65C60.1511 72.65 59.4491 71.949 59.4491 71.082C59.4491 70.216 60.1501 69.513 61.0181 69.513ZM56.7641 61.435C57.6311 61.435 58.3331 62.138 58.3331 63.003C58.3331 63.87 57.6311 64.572 56.7641 64.572C55.8971 64.572 55.1961 63.869 55.1961 63.003C55.1961 62.138 55.8971 61.435 56.7641 61.435ZM56.7641 65.473C57.6311 65.473 58.3331 66.176 58.3331 67.043C58.3331 67.909 57.6311 68.613 56.7641 68.613C55.8971 68.613 55.1961 67.909 55.1961 67.043C55.1961 66.176 55.8971 65.473 56.7641 65.473ZM56.7641 69.513C57.6311 69.513 58.3331 70.217 58.3331 71.082C58.3331 71.949 57.6311 72.65 56.7641 72.65C55.8971 72.65 55.1961 71.949 55.1961 71.082C55.1961 70.216 55.8971 69.513 56.7641 69.513ZM56.7641 73.552C57.6311 73.552 58.3331 74.254 58.3331 75.121C58.3331 75.986 57.6311 76.689 56.7641 76.689C55.8971 76.689 55.1961 75.985 55.1961 75.121C55.1961 74.254 55.8971 73.552 56.7641 73.552ZM52.3001 57.395C53.1671 57.395 53.8711 58.098 53.8711 58.965C53.8711 59.831 53.1671 60.533 52.3001 60.533C51.4351 60.533 50.7311 59.83 50.7311 58.965C50.7311 58.098 51.4351 57.395 52.3001 57.395ZM52.3001 61.435C53.1671 61.435 53.8711 62.138 53.8711 63.003C53.8711 63.87 53.1671 64.572 52.3001 64.572C51.4351 64.572 50.7311 63.869 50.7311 63.003C50.7311 62.138 51.4351 61.435 52.3001 61.435ZM52.3001 65.473C53.1671 65.473 53.8711 66.176 53.8711 67.043C53.8711 67.909 53.1671 68.613 52.3001 68.613C51.4351 68.613 50.7311 67.909 50.7311 67.043C50.7311 66.176 51.4351 65.473 52.3001 65.473ZM52.3001 69.513C53.1671 69.513 53.8711 70.217 53.8711 71.082C53.8711 71.949 53.1671 72.65 52.3001 72.65C51.4351 72.65 50.7311 71.949 50.7311 71.082C50.7311 70.216 51.4351 69.513 52.3001 69.513ZM48.2631 61.435C49.1281 61.435 49.8321 62.138 49.8321 63.003C49.8321 63.87 49.1281 64.572 48.2631 64.572C47.3961 64.572 46.6941 63.869 46.6941 63.003C46.6941 62.138 47.3961 61.435 48.2631 61.435ZM48.2631 65.473C49.1281 65.473 49.8321 66.176 49.8321 67.043C49.8321 67.909 49.1281 68.613 48.2631 68.613C47.3961 68.613 46.6941 67.909 46.6941 67.043C46.6941 66.176 47.3961 65.473 48.2631 65.473Z" fill="#363636"/>
</svg>
