<svg width="160" height="160" viewBox="0 0 160 160" fill="none" xmlns="http://www.w3.org/2000/svg">
<path d="M119.679 47.011H40.188C39.3425 47.011 38.5316 47.3469 37.9337 47.9447C37.3359 48.5426 37 49.3535 37 50.199V96.612C36.9997 97.0308 37.082 97.4455 37.2421 97.8325C37.4022 98.2194 37.637 98.571 37.9331 98.8672C38.2292 99.1634 38.5807 99.3983 38.9676 99.5585C39.3545 99.7187 39.7692 99.8011 40.188 99.801H119.68C120.099 99.8011 120.514 99.7187 120.901 99.5585C121.288 99.3983 121.639 99.1634 121.935 98.8673C122.231 98.5711 122.466 98.2195 122.627 97.8325C122.787 97.4456 122.869 97.0308 122.869 96.612V50.199C122.869 49.7802 122.786 49.3656 122.626 48.9787C122.465 48.5918 122.23 48.2404 121.934 47.9443C121.638 47.6483 121.286 47.4135 120.899 47.2534C120.512 47.0932 120.098 47.0109 119.679 47.011V47.011ZM45.25 80.236H45.024C44.1783 80.2357 43.3673 79.8997 42.7693 79.3017C42.1713 78.7037 41.8353 77.8927 41.835 77.047V69.764C41.835 69.3453 41.9175 68.9306 42.0778 68.5438C42.238 68.1569 42.473 67.8054 42.7691 67.5094C43.0652 67.2133 43.4168 66.9785 43.8037 66.8184C44.1906 66.6582 44.6053 66.5759 45.024 66.576H45.25V80.236ZM106.481 95.408H50.199V51.402H106.481V95.408V95.408ZM115.258 77.552C112.969 77.552 111.112 75.697 111.112 73.405C111.112 71.113 112.968 69.258 115.258 69.258C116.358 69.258 117.413 69.6949 118.19 70.4726C118.968 71.2503 119.405 72.3051 119.405 73.405C119.405 74.5049 118.968 75.5597 118.19 76.3374C117.413 77.1151 116.358 77.552 115.258 77.552V77.552ZM68.355 43H91.512V45.758H68.355V43ZM83.466 107.861V104.888H91.512V102.13H68.356V104.888H76.401V140.134C75.3203 140.607 74.401 141.385 73.7554 142.372C73.1098 143.359 72.766 144.513 72.766 145.693V160H87.101V145.693C87.1013 144.513 86.7575 143.359 86.1116 142.372C85.4658 141.385 84.546 140.608 83.465 140.136V112.146H88.261L93.312 113.359V106.648L88.261 107.861H83.466V107.861Z" fill="#363636"/>
</svg>
