<svg width="160" height="160" viewBox="0 0 160 160" fill="none" xmlns="http://www.w3.org/2000/svg">
<path d="M26.0517 45.258C20.5067 45.745 15.8377 46.85 14.5747 47.93C13.8527 48.546 13.8527 48.546 14.3427 49.086C14.9867 49.806 18.0557 50.731 21.5897 51.323C25.5877 51.991 34.0997 52.016 35.3137 51.374C36.5247 50.706 36.9377 49.96 36.9377 48.393C36.9377 46.774 36.3177 45.977 34.7197 45.54C33.2737 45.154 28.9397 45 26.0517 45.258ZM39.7737 45.488C39.6447 45.771 39.5157 47.596 39.5157 49.6C39.5157 53.661 39.6707 53.378 37.3237 53.533L36.2937 53.61L36.1637 56.155L36.0347 58.699L34.8487 58.982C32.2687 59.65 30.8487 61.577 31.0567 64.276C31.1847 66.203 32.0867 67.617 33.6357 68.363C34.7447 68.876 35.1057 68.901 44.8817 68.901C50.4267 68.901 55.0187 68.98 55.0697 69.081C55.1207 69.211 53.9597 78.489 52.4897 89.721C51.0457 100.951 49.8077 110.718 49.7817 111.387C49.7307 113.004 50.6077 114.007 52.1297 114.007C53.3667 114.007 54.1417 113.367 54.4507 112.107C54.5807 111.593 55.9467 101.773 57.4687 90.285C58.9907 78.822 60.3317 69.416 60.4087 69.416C60.5127 69.416 61.4927 70.829 62.6017 72.552C65.5417 77.178 65.0007 76.869 70.2367 76.869H74.5957V82.499L69.4627 82.576C64.7427 82.653 64.2527 82.703 63.5817 83.191C62.0087 84.348 61.9567 84.606 61.9567 94.168C61.9567 103.702 61.9827 103.96 63.4787 105.218L64.3297 105.913H95.6947L96.5457 105.217C98.0417 103.96 98.0657 103.702 98.0657 94.167C98.0657 84.607 98.0157 84.348 96.4437 83.191C95.7727 82.703 95.2827 82.653 90.5617 82.576L85.4297 82.499V76.869H89.7897C95.0237 76.869 94.4827 77.178 97.4227 72.552C98.5327 70.829 99.5127 69.416 99.6167 69.416C99.6927 69.416 101.035 78.822 102.557 90.285C104.079 101.773 105.446 111.593 105.575 112.106C105.885 113.366 106.657 114.008 107.896 114.008C109.417 114.008 110.296 113.004 110.243 111.387C110.217 110.717 108.979 100.951 107.533 89.721C106.065 78.489 104.903 69.211 104.956 69.081C105.006 68.98 109.597 68.901 115.146 68.901C124.92 68.901 125.281 68.876 126.389 68.363C127.937 67.617 128.839 66.203 128.969 64.276C129.175 61.577 127.757 59.65 125.177 58.982L123.99 58.699L123.863 56.155L123.733 53.61L122.702 53.533C120.355 53.378 120.508 53.661 120.508 49.6C120.508 47.596 120.38 45.771 120.251 45.488C120.045 45.128 119.708 45 118.884 45C118.265 45 117.646 45.128 117.464 45.309C117.258 45.514 117.154 46.774 117.154 49.241C117.154 51.708 117.052 52.968 116.845 53.173C116.665 53.353 115.944 53.481 115.195 53.481C113.57 53.481 113.545 53.533 113.545 56.591V58.878H46.4797V56.591C46.4797 53.533 46.4557 53.481 44.8297 53.481C44.0817 53.481 43.3597 53.352 43.1797 53.173C42.9727 52.968 42.8697 51.708 42.8697 49.241C42.8697 46.774 42.7667 45.514 42.5597 45.309C42.3797 45.129 41.7597 45 41.1417 45C40.3167 45 39.9817 45.128 39.7737 45.488V45.488ZM82.6167 85.608C85.5057 86.507 88.0087 89.001 88.7827 91.776C89.2217 93.319 89.0927 95.992 88.4987 97.56C87.8027 99.435 85.8137 101.57 83.9337 102.495C82.6437 103.137 82.1797 103.214 80.0127 103.214C77.8457 103.214 77.3817 103.137 76.0927 102.495C74.2077 101.569 72.2227 99.435 71.5257 97.56C70.9337 95.992 70.8037 93.32 71.2427 91.776C71.9907 89.053 74.4927 86.506 77.3037 85.608C79.3157 84.966 80.6037 84.966 82.6167 85.608V85.608Z" fill="#363636"/>
<path d="M77.7937 89.4381C75.7567 90.3631 74.2867 93.0871 74.7247 95.1681C75.4987 98.8451 79.5477 100.721 82.7207 98.8701C84.7057 97.7121 85.7107 95.3231 85.1707 93.0871C84.6027 90.6971 82.4367 88.9491 80.0127 88.9491C79.3667 88.9491 78.3867 89.1811 77.7927 89.4381H77.7937ZM50.0917 45.1541C46.1717 45.8221 45.5787 46.2851 45.5787 48.5981C45.5787 50.4231 46.0417 51.0141 47.8467 51.5541C49.3967 52.0161 55.0187 52.0681 58.3467 51.6821C65.2067 50.8601 69.6677 49.1381 68.0447 47.9301C66.7797 47.0301 63.1427 46.0541 58.9907 45.5401C56.5157 45.2321 50.9947 45.0001 50.0907 45.1541H50.0917ZM103.484 45.2581C97.1647 45.8481 91.6197 47.3391 91.6197 48.4441C91.6197 50.1661 99.4597 51.9141 107.25 51.9391C113.054 51.9391 114.446 51.2971 114.446 48.5991C114.446 46.7741 113.827 45.9771 112.073 45.5141C110.423 45.1031 106.398 45.0001 103.484 45.2581ZM126.776 45.2831C124.996 45.5141 123.758 46.0531 123.346 46.7741C122.959 47.5441 123.036 49.6781 123.5 50.3461C124.428 51.6561 125.152 51.8111 130.568 51.8111C134.229 51.8111 136.37 51.6821 138.435 51.3231C141.969 50.7311 145.038 49.8061 145.683 49.0861C146.173 48.5461 146.173 48.5461 145.45 47.9301C144.11 46.8001 139.492 45.7451 133.534 45.2581C130.053 44.9751 129.046 44.9751 126.776 45.2831V45.2831Z" fill="#363636"/>
</svg>
